# AST/ASF file generated using VICON BodyLanguage
# -----------------------------------------------
:version 1.10
:name VICON
:units
  mass 1.0
  length 0.45
  angle deg
:documentation
   .ast/.asf automatically generated from VICON data using
   VICON BodyBuilder and BodyLanguage model FoxedUp or BRILLIANT.MOD
:root
   order TX TY TZ RX RY RZ
   axis XYZ
   position 0 0 0  
   orientation 0 0 0 
:bonedata
  begin
     id 1 
     name lhipjoint
     direction 0.621036 -0.695554 0.361275 
     length 2.46325 
     axis 0 0 0  XYZ
  end
  begin
     id 2 
     name lfemur
     direction 0.34202 -0.939693 0  
     length 6.54784  
     axis 0 0 20  XYZ
    dof rx ry rz
    limits (-160.0 20.0)
           (-70.0 70.0)
           (-60.0 70.0)
  end
  begin
     id 3 
     name ltibia
     direction 0.34202 -0.939693 0   
     length 7.84737   
     axis 0 0 20   XYZ
    dof rx
    limits (-10.0 170.0)
  end
  begin
     id 4 
     name lfoot
     direction 0.0790693 -0.217241 0.97291   
     length 2.59747   
     axis -90 7.62852e-016 20   XYZ
    dof rx rz
    limits (-45.0 90.0)
           (-70.0 20.0)
  end
  begin
     id 5 
     name ltoes
     direction 1.53572e-011 -4.21898e-011 1   
     length 1.29919   
     axis -90 7.62852e-016 20   XYZ
    dof rx
    limits (-90.0 20.0)
  end
  begin
     id 6 
     name rhipjoint
     direction -0.602353 -0.708375 0.367935   
     length 2.41867  
     axis 0 0 0  XYZ 
  end
  begin
     id 7 
     name rfemur
     direction -0.34202 -0.939693 0   
     length 6.92065   
     axis 0 0 -20   XYZ
    dof rx ry rz
    limits (-160.0 20.0)
           (-70.0 70.0)
           (-70.0 60.0)
  end
  begin
     id 8 
     name rtibia
     direction -0.34202 -0.939693 0   
     length 7.88883   
     axis 0 0 -20   XYZ
    dof rx
    limits (-10.0 170.0)
 end
 begin
     id 9 
     name rfoot
     direction -0.0768692 -0.211196 0.974416   
     length 2.43714  
     axis -90 -7.62852e-016 -20   XYZ
    dof rx rz
    limits (-45.0 90.0)
           (-20.0 70.0)
  end
  begin
     id 10 
     name rtoes
     direction -1.53575e-011 -4.21933e-011 1   
     length 1.22113   
     axis -90 -7.62852e-016 -20   XYZ
    dof rx
    limits (-90.0 20.0)
  end
  begin
     id 11 
     name lowerback
     direction 0.0197937 0.98943 -0.143655   
     length 2.16931   
     axis 0 0 0   XYZ
    dof rx ry rz
    limits (-20.0 45.0)
           (-30.0 30.0)
           (-30.0 30.0)
  end
  begin
     id 12 
     name upperback
     direction -0.00183968 0.999975 0.00684288   
     length 2.17221   
     axis 0 0 0   XYZ
    dof rx ry rz
    limits (-20.0 45.0)
           (-30.0 30.0)
           (-30.0 30.0)
  end
  begin
     id 13 
     name thorax
     direction -0.00950244 0.997208 0.0740685   
     length 2.22549   
     axis 0 0 0   XYZ
    dof rx ry rz
    limits (-20.0 45.0)
           (-30.0 30.0)
           (-30.0 30.0)
  end
  begin
     id 14 
     name lowerneck
     direction 0.0218238 0.996215 0.0841425   
     length 1.77269   
     axis 0 0 0   XYZ
    dof rx ry rz
    limits (-20.0 45.0)
           (-30.0 30.0)
           (-30.0 30.0)
  end
  begin
     id 15 
     name upperneck
     direction -0.00430652 0.994214 -0.107332   
     length 1.76534   
     axis 0 0 0   XYZ
    dof rx ry rz
    limits (-20.0 45.0)
           (-30.0 30.0)
           (-30.0 30.0)
  end
  begin
     id 16
     name head
     direction -0.00328946 0.998959 -0.0454998  
     length 1.82634  
     axis 0 0 0   XYZ
    dof rx ry rz
    limits (-20.0 45.0)
           (-30.0 30.0)
           (-30.0 30.0)
  end
  begin
     id 17 
     name lclavicle
     direction 0.970962 0.239191 0.00450212  
     length 3.84872  
     axis 0 0 0   XYZ
    dof ry rz
    limits (-20.0 10.0)
           (0.0 20.0)
  end
  begin
     id 18 
     name lhumerus
     direction 1 -4.48966e-011 5.74696e-028   
     length 5.22771   
     axis 180 -30 -90   XYZ
    dof rx ry rz
    limits (-60.0 90.0)
           (-90.0 90.0)
           (-90.0 90.0)
  end
  begin
     id 19
     name lradius
     direction 1 -4.4896e-011 4.25109e-027   
     length 3.45251   
     axis 180 -30 -90   XYZ
    dof rx
    limits (-10.0 170.0)
  end
  begin
     id 20
     name lwrist
     direction 1 -4.48971e-011 1.15382e-027   
     length 1.72626   
     axis -5.52449e-016 90 90   XYZ
    dof ry
    limits (-180.0 0.0)
 end
  begin
     id 21 
     name lhand
     direction 1 -4.49034e-011 2.30765e-027   
     length 0.552119   
     axis -1.47248e-015 90 90   XYZ
    dof rx rz
    limits (-90.0 90.0)
           (-45.0 45.0)
  end
  begin
     id 22 
     name lfingers
     direction 1 -4.48951e-011 4.61529e-027   
     length 0.445133   
     axis -2.94495e-015 90 90   XYZ
    dof rx
    limits (0.0 90.0)
  end
  begin
     id 23
     name lthumb
     direction 0.707107 -6.34991e-011 0.707107   
     length 0.639124   
     axis -90 45 2.85299e-015   XYZ
    dof rx rz
    limits (-45.0 45.0)
           (-45.0 45.0)
  end
  begin
     id 24 
     name rclavicle
     direction -0.97424 0.222511 -0.0366699   
     length 3.73439  
     axis 0 0 0   XYZ 
    dof ry rz
    limits (-10.0 20.0)
           (-20.0 0.0)
  end
  begin
     id 25 
     name rhumerus
     direction -1 -4.48956e-011 -4.97258e-028  
     length 5.2398   
     axis 180 30 90   XYZ
    dof rx ry rz
    limits (-90.0 60.0)
           (-90.0 90.0)
           (-90.0 90.0)
  end
  begin
     id 26 
     name rradius
     direction -1 -4.4897e-011 -1.72611e-027   
     length 3.48042   
     axis 180 30 90   XYZ
    dof rx
    limits (-10.0 170.0)
  end
  begin
     id 27 
     name rwrist
     direction -1 -4.48976e-011 1.15382e-027   
     length 1.74021   
     axis -5.52449e-016 -90 -90   XYZ
    dof ry
    limits (-180.0 0.0)
  end
  begin
     id 28
     name rhand
     direction -1 -4.48963e-011 2.30765e-027   
     length 0.618713   
     axis -1.47248e-015 -90 -90   XYZ
    dof rx rz
    limits (-90.0 90.0)
           (-45.0 45.0)
  end
  begin
     id 29
     name rfingers
     direction -1 -4.4888e-011 4.61529e-027   
     length 0.498823   
     axis -2.94495e-015 -90 -90   XYZ
    dof rx
    limits (0.0 90.0)
  end
  begin
     id 30
     name rthumb
     direction -0.707107 -6.34968e-011 0.707107   
     length 0.716213   
     axis -90 -45 -2.85299e-015   XYZ
    dof rx rz
    limits (-45.0 45.0)
           (-45.0 45.0)
  end
:hierarchy
  begin
    root lhipjoint rhipjoint lowerback
    lhipjoint lfemur
    lfemur ltibia
    ltibia lfoot
    lfoot ltoes
    rhipjoint rfemur
    rfemur rtibia
    rtibia rfoot
    rfoot rtoes
    lowerback upperback
    upperback thorax
    thorax lowerneck lclavicle rclavicle
    lowerneck upperneck
    upperneck head
    lclavicle lhumerus
    lhumerus lradius
    lradius lwrist
    lwrist lhand lthumb
    lhand lfingers
    rclavicle rhumerus
    rhumerus rradius
    rradius rwrist
    rwrist rhand rthumb
    rhand rfingers
  end

#!OML:ASF G:\JayActor3\Patient Classification 1\Patient 1\Session 5\male.ASF
:FULLY-SPECIFIED
:DEGREES
34
root -38.9943 17.0223 -5.94233 -58.5067 86.1456 -57.1895
lowerback 0.549488 -0.507859 2.57221
upperback 1.90692 -0.676803 0.331434
thorax 1.62078 -0.295193 -1.10688
lowerneck -8.99289 0.351216 2.55921
upperneck 9.06039 0.045181 1.02381
head 4.64255 0.181865 -0.107874
rclavicle 2.33572e-015 5.96354e-016
rhumerus -31.5793 -5.94114 -86.2784
rradius 26.5458
rwrist 1.51161
rhand -18.9084 -7.59783
rfingers 7.12502
rthumb 7.39359 -37.4486
lclavicle 2.33572e-015 5.96354e-016
lhumerus -30.9813 1.33883 86.9706
lradius 23.9851
lwrist 15.2651
lhand -17.1487 13.3631
lfingers 7.12502
lthumb 9.09185 43.1471
rfemur -8.63732 4.78368 23.2502
rtibia 34.4015
rfoot -25.7742 -13.7176
rtoes 7.63796
lfemur -0.627195 5.71427 -16.8776
ltibia 19.9506
lfoot -16.2814 9.01664
ltoes -5.98081
35
root -38.9933 17.0224 -5.94243 -58.5129 86.1413 -57.2082
lowerback 0.553874 -0.509093 2.5783
upperback 1.90118 -0.678311 0.334478
thorax 1.61235 -0.296049 -1.1071
lowerneck -8.97911 0.350562 2.55245
upperneck 9.05583 0.0445901 1.03547
head 4.638 0.181891 -0.102739
rclavicle -1.05356e-014 1.35174e-014
rhumerus -31.6091 -5.92855 -86.2855
rradius 26.5986
rwrist 1.48897
rhand -18.9055 -7.6187
rfingers 7.12502
rthumb 7.39636 -37.4694
lclavicle -1.05356e-014 1.35174e-014
lhumerus -30.9892 1.3313 86.9658
lradius 23.9888
lwrist 15.2604
lhand -17.1367 13.3892
lfingers 7.12502
lthumb 9.10339 43.1728
rfemur -8.64307 4.79589 23.2557
rtibia 34.3973
rfoot -25.7826 -13.7155
rtoes 7.66408
lfemur -0.639851 5.72474 -16.872
ltibia 19.9569
lfoot -16.2866 9.00742
ltoes -5.9948
36
root -38.9922 17.0225 -5.94256 -58.4906 86.1402 -57.1987
lowerback 0.557905 -0.50936 2.58163
upperback 1.89531 -0.678518 0.335719
thorax 1.60403 -0.296289 -1.10763
lowerneck -8.9772 0.350137 2.55685
upperneck 9.06197 0.0435193 1.03512
head 4.63987 0.181616 -0.10371
rclavicle -2.60905e-015 -3.57812e-015
rhumerus -31.6397 -5.92395 -86.2901
rradius 26.6486
rwrist 1.46875
rhand -18.9025 -7.6435
rfingers 7.12502
rthumb 7.39925 -37.4941
lclavicle -2.60905e-015 -3.57812e-015
lhumerus -30.9991 1.32282 86.9605
lradius 23.993
lwrist 15.2566
lhand -17.1303 13.402
lfingers 7.12502
lthumb 9.10961 43.1853
rfemur -8.64962 4.80759 23.2568
rtibia 34.393
rfoot -25.7898 -13.7142
rtoes 7.68394
lfemur -0.653216 5.72942 -16.8718
ltibia 19.9645
lfoot -16.2971 9.00216
ltoes -5.99896
37
root -38.9911 17.0226 -5.94274 -58.4787 86.1384 -57.1993
lowerback 0.559437 -0.508339 2.58788
upperback 1.89046 -0.677106 0.336648
thorax 1.5982 -0.295631 -1.11013
lowerneck -8.97191 0.347721 2.55611
upperneck 9.06684 0.0400441 1.04014
head 4.64052 0.180247 -0.102097
rclavicle 1.81391e-015 -4.17448e-015
rhumerus -31.6641 -5.93182 -86.2896
rradius 26.6852
rwrist 1.45689
rhand -18.9041 -7.66523
rfingers 7.12502
rthumb 7.39775 -37.5159
lclavicle 1.81391e-015 -4.17448e-015
lhumerus -31.0071 1.31354 86.9562
lradius 23.9938
lwrist 15.2554
lhand -17.1292 13.4113
lfingers 7.12502
lthumb 9.11066 43.1945
rfemur -8.65702 4.81897 23.2589
rtibia 34.39
rfoot -25.7928 -13.7165
rtoes 7.69677
lfemur -0.66621 5.73844 -16.8695
ltibia 19.9707
lfoot -16.3062 8.99296
ltoes -6.00682
38
root -38.99 17.0227 -5.94295 -58.4472 86.1361 -57.1796
lowerback 0.558582 -0.506693 2.59373
upperback 1.88887 -0.674956 0.337441
thorax 1.59707 -0.294509 -1.11257
lowerneck -8.96911 0.345765 2.56003
upperneck 9.06624 0.0370312 1.04006
head 4.63971 0.178897 -0.103035
rclavicle -4.73356e-015 4.77083e-015
rhumerus -31.6734 -5.94601 -86.2867
rradius 26.7009
rwrist 1.45372
rhand -18.9088 -7.67481
rfingers 7.12502
rthumb 7.39318 -37.5256
lclavicle -4.73356e-015 4.77083e-015
lhumerus -31.0103 1.30782 86.9507
lradius 23.9913
lwrist 15.2563
lhand -17.1319 13.4097
lfingers 7.12502
lthumb 9.10807 43.193
rfemur -8.66541 4.82948 23.2604
rtibia 34.3893
rfoot -25.7928 -13.7199
rtoes 7.69915
lfemur -0.676745 5.74392 -16.8681
ltibia 19.9742
lfoot -16.3135 8.98629
ltoes -6.00694
39
root -38.9887 17.0227 -5.9433 -58.3632 86.1358 -57.1042
lowerback 0.556132 -0.504848 2.59649
upperback 1.89145 -0.672604 0.337627
thorax 1.60117 -0.293207 -1.11394
lowerneck -8.9698 0.342302 2.56758
upperneck 9.06444 0.0322167 1.03171
head 4.63918 0.176309 -0.107569
rclavicle -1.46355e-014 9.93923e-016
rhumerus -31.6802 -5.95593 -86.2837
rradius 26.7185
rwrist 1.45033
rhand -18.9127 -7.68155
rfingers 7.12502
rthumb 7.38942 -37.5325
lclavicle -1.46355e-014 9.93923e-016
lhumerus -31.0079 1.30506 86.9458
lradius 23.9851
lwrist 15.2568
lhand -17.1436 13.4157
lfingers 7.12502
lthumb 9.0968 43.1995
rfemur -8.67165 4.83538 23.2563
rtibia 34.3915
rfoot -25.7896 -13.7205
rtoes 7.68399
lfemur -0.68187 5.74359 -16.8726
ltibia 19.9739
lfoot -16.3183 8.98867
ltoes -6.01236
40
root -38.9874 17.0225 -5.94374 -58.2573 86.1348 -57.005
lowerback 0.557291 -0.503057 2.6002
upperback 1.89427 -0.670196 0.337296
thorax 1.60346 -0.291874 -1.11635
lowerneck -8.97306 0.337826 2.57884
upperneck 9.06336 0.0259704 1.01815
head 4.63944 0.172875 -0.114645
rclavicle 3.31722e-015 3.57812e-015
rhumerus -31.6756 -5.96904 -86.2797
rradius 26.7133
rwrist 1.45408
rhand -18.9199 -7.666
rfingers 7.12502
rthumb 7.38243 -37.5172
lclavicle 3.31722e-015 3.57812e-015
lhumerus -31.004 1.30319 86.9391
lradius 23.976
lwrist 15.2615
lhand -17.1531 13.4145
lfingers 7.12502
lthumb 9.08758 43.1987
rfemur -8.67685 4.83756 23.251
rtibia 34.3968
rfoot -25.7897 -13.7137
rtoes 7.68046
lfemur -0.681935 5.73933 -16.8785
ltibia 19.9692
lfoot -16.3209 8.9949
ltoes -6.00919
41
root -38.9858 17.0223 -5.94424 -58.1043 86.137 -56.856
lowerback 0.559114 -0.501525 2.60003
upperback 1.89856 -0.668094 0.335344
thorax 1.60691 -0.290708 -1.11824
lowerneck -8.97647 0.332519 2.59038
upperneck 9.06294 0.0186968 1.00322
head 4.63997 0.16888 -0.122305
rclavicle 1.5617e-014 -1.98785e-016
rhumerus -31.6692 -5.97875 -86.277
rradius 26.7035
rwrist 1.46013
rhand -18.9265 -7.65195
rfingers 7.12502
rthumb 7.37609 -37.5034
lclavicle 1.5617e-014 -1.98785e-016
lhumerus -31.0004 1.30278 86.9308
lradius 23.9675
lwrist 15.2681
lhand -17.1607 13.4073
lfingers 7.12502
lthumb 9.08027 43.1918
rfemur -8.68022 4.83549 23.2397
rtibia 34.405
rfoot -25.7891 -13.7059
rtoes 7.66504
lfemur -0.675782 5.73766 -16.8893
ltibia 19.9609
lfoot -16.322 8.99903
ltoes -6.0062
42
root -38.9841 17.0221 -5.94483 -57.9089 86.1428 -56.662
lowerback 0.564917 -0.500398 2.59545
upperback 1.90171 -0.666364 0.332033
thorax 1.60696 -0.289843 -1.11902
lowerneck -8.9722 0.327444 2.6006
upperneck 9.05777 0.0120602 0.990163
head 4.63717 0.165164 -0.129057
rclavicle 3.10601e-016 -1.98785e-016
rhumerus -31.665 -5.98473 -86.2752
rradius 26.69
rwrist 1.4675
rhand -18.9311 -7.63944
rfingers 7.12502
rthumb 7.37164 -37.491
lclavicle 3.10601e-016 -1.98785e-016
lhumerus -30.9991 1.30792 86.9195
lradius 23.9577
lwrist 15.2741
lhand -17.157 13.3825
lfingers 7.12502
lthumb 9.08381 43.1669
rfemur -8.68233 4.82971 23.2225
rtibia 34.4164
rfoot -25.7899 -13.6952
rtoes 7.64757
lfemur -0.664094 5.73283 -16.9063
ltibia 19.9495
lfoot -16.3209 9.00813
ltoes -6.00177
43
root -38.9823 17.0218 -5.94537 -57.7379 86.1495 -56.4917
lowerback 0.568734 -0.500511 2.59096
upperback 1.90645 -0.666362 0.328445
thorax 1.60968 -0.289785 -1.12017
lowerneck -8.96067 0.322757 2.60518
upperneck 9.04353 0.00627157 0.984634
head 4.62953 0.161918 -0.132186
rclavicle 1.07095e-014 2.5842e-015
rhumerus -31.6488 -5.99508 -86.2731
rradius 26.6573
rwrist 1.48421
rhand -18.9378 -7.62
rfingers 7.12502
rthumb 7.36521 -37.4718
lclavicle 1.07095e-014 2.5842e-015
lhumerus -30.9974 1.31175 86.9081
lradius 23.951
lwrist 15.2778
lhand -17.1547 13.3696
lfingers 7.12502
lthumb 9.08607 43.1539
rfemur -8.68273 4.82539 23.2064
rtibia 34.4296
rfoot -25.799 -13.6804
rtoes 7.65183
lfemur -0.649971 5.73841 -16.9209
ltibia 19.9365
lfoot -16.3192 9.00571
ltoes -5.99685
44
root -38.9806 17.0215 -5.94588 -57.5055 86.1634 -56.2602
lowerback 0.574615 -0.500924 2.5792
upperback 1.90886 -0.666633 0.32137
thorax 1.60888 -0.290031 -1.1208
lowerneck -8.93843 0.319314 2.60324
upperneck 9.02337 0.00238611 0.989977
head 4.61751 0.159867 -0.130314
rclavicle 2.06239e-015 3.57812e-015
rhumerus -31.6319 -6.00839 -86.2717
rradius 26.6157
rwrist 1.50475
rhand -18.9444 -7.60334
rfingers 7.12502
rthumb 7.3588 -37.4554
lclavicle 2.06239e-015 3.57812e-015
lhumerus -31.0012 1.31281 86.8954
lradius 23.9477
lwrist 15.2798
lhand -17.1533 13.3593
lfingers 7.12502
lthumb 9.08741 43.1436
rfemur -8.68402 4.82215 23.1813
rtibia 34.444
rfoot -25.8116 -13.6642
rtoes 7.65573
lfemur -0.636495 5.74384 -16.9451
ltibia 19.9237
lfoot -16.3185 9.00462
ltoes -5.98539
